<?xml version="1.0" standalone="no"?>
<!DOCTYPE svg PUBLIC "-//W3C//DTD SVG 20010904//EN"
 "http://www.w3.org/TR/2001/REC-SVG-20010904/DTD/svg10.dtd">
<svg version="1.0" xmlns="http://www.w3.org/2000/svg"
 width="344.000000pt" height="53.000000pt" viewBox="0 0 344.000000 53.000000"
 preserveAspectRatio="xMidYMid meet">

<g transform="translate(0.000000,53.000000) scale(0.100000,-0.100000)"
fill="#000000" stroke="none">
<path d="M0 265 l0 -265 1720 0 1720 0 0 265 0 265 -1720 0 -1720 0 0 -265z
m3200 229 c0 -23 -3 -25 -29 -19 l-29 6 -4 -56 c-3 -58 4 -72 35 -67 11 2 17
-3 17 -17 0 -14 -8 -21 -27 -23 -28 -3 -28 -4 -28 -71 0 -55 4 -70 18 -78 32
-19 17 -29 -43 -29 -62 0 -73 9 -45 36 10 10 15 35 15 76 0 51 -3 61 -20 65
-11 3 -20 10 -20 17 0 6 9 17 20 24 11 7 20 23 20 36 0 62 46 126 92 126 23 0
28 -4 28 -26z m-1020 -6 c0 -9 3 -9 12 0 20 20 71 14 110 -13 50 -34 77 -33
70 1 -4 23 -2 25 24 22 27 -3 29 -6 32 -50 3 -46 1 -49 -53 -103 -66 -66 -77
-90 -76 -168 0 -57 0 -58 -27 -55 -25 3 -27 7 -30 50 -5 79 14 125 74 185 l55
53 -38 0 c-21 0 -51 9 -68 20 -38 25 -75 26 -76 3 0 -10 0 -37 1 -60 1 -37 -1
-43 -19 -43 -20 0 -21 6 -21 85 0 69 3 85 15 85 8 0 15 -5 15 -12z m480 4 c0
-4 -9 -16 -21 -26 -20 -16 -21 -26 -17 -146 1 -71 6 -132 11 -136 14 -14 91
-4 125 17 18 10 35 19 38 19 10 0 3 -48 -11 -68 -15 -20 -23 -22 -140 -21 -69
0 -125 3 -125 6 0 4 8 15 17 26 14 14 18 42 21 123 5 134 -2 172 -34 184 -45
18 -24 28 56 29 44 0 80 -3 80 -7z m-2458 -8 c35 -6 38 -9 44 -50 8 -54 0 -78
-14 -43 -31 78 -142 94 -142 21 0 -19 12 -29 64 -52 81 -37 106 -67 106 -131
0 -40 -5 -52 -31 -78 -35 -35 -77 -40 -144 -17 -31 11 -41 21 -46 43 -10 45
-10 73 1 73 6 0 10 -7 10 -16 0 -9 15 -31 34 -50 56 -56 126 -41 126 27 0 25
-7 32 -62 60 -92 46 -108 63 -108 119 0 86 47 113 162 94z m1280 -41 c3 -37 4
-38 46 -41 33 -3 42 -7 42 -22 0 -15 -9 -19 -42 -22 l-43 -3 -3 -66 c-3 -78 9
-119 37 -119 24 0 33 13 41 60 9 57 34 46 38 -17 4 -68 -18 -93 -81 -93 -66 0
-76 16 -79 135 -3 95 -4 100 -25 103 -15 2 -23 10 -23 22 0 12 8 20 23 22 18
2 23 10 25 41 2 28 8 37 22 37 14 0 20 -9 22 -37z m-752 12 c15 -18 5 -65 -13
-65 -32 0 -48 45 -25 68 16 16 23 15 38 -3z m2596 -101 c30 6 34 4 34 -14 0
-16 -6 -20 -35 -20 l-35 0 0 -62 c0 -77 9 -93 44 -84 19 5 26 3 26 -8 0 -22
-36 -38 -78 -34 l-37 3 -3 93 c-2 73 -6 92 -17 92 -25 0 -17 18 23 54 l37 35
3 -31 c3 -28 5 -30 38 -24z m-1556 26 c0 -11 -7 -20 -15 -20 -14 0 -13 -3 2
-24 l18 -24 23 21 c13 12 18 23 13 25 -6 2 -11 12 -11 23 0 17 8 19 75 19 68
0 75 -2 75 -20 0 -15 -7 -20 -28 -20 -20 0 -40 -13 -70 -43 l-42 -43 42 -51
c32 -39 50 -52 71 -52 20 -1 27 -6 27 -21 0 -18 -7 -20 -75 -20 -68 0 -75 2
-75 20 0 12 7 20 17 20 13 0 10 7 -13 31 l-29 30 -24 -28 c-21 -24 -22 -28 -8
-31 9 -2 17 -12 17 -23 0 -17 -8 -19 -75 -19 -68 0 -75 2 -75 20 0 14 7 20 24
20 17 0 37 15 65 48 23 26 41 50 41 53 0 4 -15 25 -32 47 -24 30 -41 41 -60
41 -21 1 -28 6 -28 21 0 18 7 20 75 20 68 0 75 -2 75 -20z m-460 -45 c0 -19
-4 -35 -10 -35 -5 0 -10 -13 -10 -29 0 -40 -32 -61 -92 -61 -34 0 -48 -4 -48
-14 0 -16 30 -26 86 -26 48 0 64 -14 64 -56 0 -49 -38 -74 -112 -74 -75 0 -98
12 -98 51 0 16 6 32 13 35 9 3 12 16 9 34 -2 17 1 36 7 44 9 10 8 16 -4 26 -9
7 -15 29 -15 51 0 56 30 73 116 66 50 -4 67 -2 71 9 10 26 23 14 23 -21z
m-430 3 c0 -20 1 -20 18 -5 27 24 97 22 122 -3 16 -16 20 -33 20 -90 0 -58 3
-72 22 -90 l22 -20 -61 0 -61 0 15 31 c11 22 14 45 9 76 -7 57 -20 73 -57 73
-35 0 -49 -24 -49 -85 0 -37 5 -51 26 -70 l27 -25 -67 0 c-59 0 -87 11 -53 23
8 2 12 27 12 76 0 60 -3 75 -19 87 -22 16 -21 18 19 32 45 16 55 14 55 -10z
m2113 -6 c15 -15 27 -38 27 -50 0 -20 -5 -22 -62 -23 -35 -1 -66 -1 -70 0 -16
2 -7 -50 12 -69 22 -22 79 -27 98 -8 6 6 15 8 19 4 5 -4 -5 -19 -20 -32 -42
-36 -109 -34 -148 5 -24 24 -29 38 -29 76 0 50 20 98 47 114 10 6 36 11 59 11
31 0 46 -6 67 -28z m-2261 -43 c-5 -84 4 -126 28 -132 11 -3 20 -10 20 -16 0
-7 -25 -11 -65 -11 -67 0 -78 8 -50 36 23 24 20 99 -6 125 -24 24 -25 22 21
42 54 24 55 22 52 -44z m-357 22 c-3 -16 -1 -49 6 -72 l13 -43 17 39 c17 39
12 75 -11 75 -6 0 -10 7 -10 15 0 12 13 15 56 15 55 0 56 -1 50 -25 -6 -24 20
-105 34 -105 4 0 15 18 25 41 15 33 16 44 7 60 -17 27 -16 29 28 29 22 0 40
-3 40 -6 0 -20 -107 -214 -118 -214 -7 0 -26 28 -41 63 l-29 62 -28 -62 c-15
-35 -32 -63 -38 -63 -6 0 -28 43 -50 95 -21 52 -42 95 -47 95 -5 0 -9 7 -9 15
0 12 13 15 56 15 l56 0 -7 -29z m1715 -41 c0 -18 -7 -20 -60 -20 -53 0 -60 2
-60 20 0 18 7 20 60 20 53 0 60 -2 60 -20z"/>
<path d="M1162 303 c-15 -28 3 -63 32 -63 31 0 47 27 35 58 -10 27 -54 30 -67
5z"/>
<path d="M1142 98 c3 -25 39 -38 78 -28 41 11 37 36 -7 44 -65 10 -75 8 -71
-16z"/>
<path d="M2887 323 c-4 -3 -7 -15 -7 -26 0 -17 5 -18 38 -12 44 8 46 10 39 30
-6 15 -57 21 -70 8z"/>
</g>
</svg>
